<svg width="115" height="115" viewBox="0 0 115 115" fill="none" xmlns="http://www.w3.org/2000/svg">
<circle cx="57.5" cy="57.5" r="57.5" fill="#4483E2"/>
<path d="M49.296 67.184C49.1893 67.184 49.0827 67.184 48.976 67.184C48.8693 67.184 48.7627 67.1733 48.656 67.152C48.2933 67.1093 48.0373 66.9813 47.888 66.768C47.7387 66.5547 47.664 66.32 47.664 66.064C47.664 65.744 47.7387 65.4347 47.888 65.136C48.0587 64.816 48.2293 64.6133 48.4 64.528C48.6987 64.3787 49.04 64.304 49.424 64.304C49.872 64.304 50.3413 64.4 50.832 64.592C51.344 64.784 51.8667 64.9973 52.4 65.232C53.104 64.4853 53.7653 63.5893 54.384 62.544C55.0027 61.4987 55.5787 60.4213 56.112 59.312C56.6453 58.1813 57.1253 57.1573 57.552 56.24C58.5333 54.192 59.44 52.5493 60.272 51.312C61.1253 50.0747 61.904 49.1253 62.608 48.464C63.312 47.8027 63.92 47.344 64.432 47.088C63.8987 46.896 63.3227 46.7467 62.704 46.64C62.1067 46.5333 61.4667 46.48 60.784 46.48C60.3147 46.48 59.8347 46.512 59.344 46.576C58.8747 46.6187 58.384 46.6933 57.872 46.8C56.272 47.12 54.8533 47.632 53.616 48.336C52.4 49.04 51.3653 49.84 50.512 50.736C49.68 51.6107 49.04 52.5067 48.592 53.424C48.1653 54.32 47.952 55.1413 47.952 55.888C47.952 56.4853 48.1013 57.008 48.4 57.456C48.6987 57.8827 49.1467 58.16 49.744 58.288C49.808 58.3093 49.904 58.32 50.032 58.32C50.3947 58.32 50.832 58.2133 51.344 58C51.8773 57.7653 52.4 57.424 52.912 56.976C53.424 56.5067 53.84 55.9307 54.16 55.248C54.3947 54.7573 54.5653 54.2987 54.672 53.872C54.8 53.424 54.864 53.0293 54.864 52.688C54.864 52.2187 54.7573 51.8453 54.544 51.568C54.352 51.2907 54.0533 51.152 53.648 51.152C53.2427 51.152 52.7733 51.3227 52.24 51.664C51.728 51.984 51.3867 52.4853 51.216 53.168C51.152 53.3173 51.12 53.456 51.12 53.584C51.12 53.776 51.1733 53.904 51.28 53.968C51.3867 54.032 51.504 54.064 51.632 54.064C51.824 54.064 51.9627 54.032 52.048 53.968C52.112 53.968 52.144 54 52.144 54.064C52.144 54.256 51.9733 54.352 51.632 54.352C51.3973 54.352 51.1947 54.2773 51.024 54.128C50.8747 53.9573 50.8 53.744 50.8 53.488C50.8 53.424 50.8213 53.3067 50.864 53.136C51.0347 52.5813 51.3973 52.0693 51.952 51.6C52.5067 51.1093 53.1147 50.864 53.776 50.864C54.288 50.864 54.6827 51.056 54.96 51.44C55.2373 51.8027 55.376 52.2933 55.376 52.912C55.376 53.232 55.3333 53.584 55.248 53.968C55.1627 54.3307 55.0347 54.704 54.864 55.088C54.3093 56.3467 53.5307 57.2747 52.528 57.872C51.5253 58.4693 50.5547 58.768 49.616 58.768C48.8267 58.768 48.1867 58.5227 47.696 58.032C47.2053 57.52 46.96 56.816 46.96 55.92C46.96 55.4293 47.0453 54.896 47.216 54.32C47.3867 53.7227 47.6533 53.0827 48.016 52.4C48.5707 51.376 49.264 50.5013 50.096 49.776C50.9493 49.0293 51.8667 48.4213 52.848 47.952C53.8293 47.4827 54.8 47.1093 55.76 46.832C56.7413 46.5547 57.648 46.352 58.48 46.224C58.864 46.16 59.2373 46.1173 59.6 46.096C59.984 46.0747 60.3573 46.064 60.72 46.064C62.256 46.064 63.6533 46.2987 64.912 46.768C65.616 46.2773 66.224 45.9573 66.736 45.808C67.2693 45.6587 67.696 45.584 68.016 45.584C68.1867 45.584 68.3253 45.5947 68.432 45.616C68.5387 45.6373 68.6027 45.648 68.624 45.648C68.7093 45.648 68.752 45.7013 68.752 45.808C68.752 45.9147 68.688 45.968 68.56 45.968C68.4747 45.9467 68.3787 45.936 68.272 45.936C68.1653 45.9147 68.048 45.904 67.92 45.904C67.6213 45.904 67.2587 45.9787 66.832 46.128C66.4053 46.256 65.9253 46.5333 65.392 46.96C66.9067 47.6 68.1227 48.5707 69.04 49.872C69.9573 51.1733 70.416 52.7627 70.416 54.64C70.416 55.6427 70.256 56.7413 69.936 57.936C69.488 59.6 68.816 60.9973 67.92 62.128C67.024 63.2587 65.9893 64.1653 64.816 64.848C63.664 65.5307 62.4587 66.0213 61.2 66.32C59.9627 66.64 58.7467 66.8 57.552 66.8C56.2293 66.8 55.0773 66.6613 54.096 66.384C53.8187 66.2987 53.5627 66.2027 53.328 66.096C53.1147 66.0107 52.8907 65.9147 52.656 65.808C52.3147 66.0213 51.9627 66.224 51.6 66.416C51.2373 66.6293 50.8427 66.8213 50.416 66.992C50.224 67.0773 50.032 67.1307 49.84 67.152C49.648 67.1733 49.4667 67.184 49.296 67.184ZM56.688 66.224C57.7547 66.224 58.8853 66.0747 60.08 65.776C61.2747 65.4773 62.4373 65.008 63.568 64.368C64.6987 63.728 65.712 62.8853 66.608 61.84C67.504 60.7733 68.176 59.4933 68.624 58C68.7947 57.424 68.9227 56.8587 69.008 56.304C69.0933 55.728 69.136 55.1733 69.136 54.64C69.136 52.8907 68.7307 51.3653 67.92 50.064C67.1307 48.7627 66.1067 47.8347 64.848 47.28C64.464 47.472 63.9947 47.856 63.44 48.432C62.9067 48.9867 62.2773 49.84 61.552 50.992C60.848 52.144 60.0267 53.7227 59.088 55.728C58.64 56.7093 58.16 57.7973 57.648 58.992C57.1573 60.1867 56.5493 61.36 55.824 62.512C55.12 63.6427 54.2027 64.6453 53.072 65.52C53.2427 65.584 53.424 65.6587 53.616 65.744C53.808 65.808 53.9893 65.8613 54.16 65.904C54.5227 65.9893 54.9173 66.064 55.344 66.128C55.7707 66.192 56.2187 66.224 56.688 66.224ZM49.36 66.832C49.8507 66.832 50.32 66.7147 50.768 66.48C51.2373 66.2453 51.6853 65.9253 52.112 65.52C51.7707 65.3493 51.4293 65.2 51.088 65.072C50.7467 64.944 50.384 64.88 50 64.88C49.744 64.88 49.488 64.912 49.232 64.976C49.0187 65.0187 48.784 65.1787 48.528 65.456C48.272 65.712 48.144 65.968 48.144 66.224C48.144 66.5013 48.336 66.6827 48.72 66.768C48.8267 66.7893 48.9333 66.8 49.04 66.8C49.168 66.8213 49.2747 66.832 49.36 66.832Z" fill="white"/>
</svg>
